<mxfile host="Electron" agent="Mozilla/5.0 (Windows NT 10.0; Win64; x64) AppleWebKit/537.36 (KHTML, like Gecko) draw.io/26.2.2 Chrome/134.0.6998.178 Electron/35.1.2 Safari/537.36" version="26.2.2">
  <diagram name="Page-1" id="tAAxu1Sa8AfIoNU0L1xv">
    <mxGraphModel dx="2255" dy="849" grid="1" gridSize="10" guides="1" tooltips="1" connect="1" arrows="1" fold="1" page="1" pageScale="1" pageWidth="827" pageHeight="1169" math="0" shadow="0">
      <root>
        <mxCell id="0" />
        <mxCell id="1" parent="0" />
        <mxCell id="BN19ADX8kNCoSahIcwr2-1" value="" style="rounded=0;html=1;jettySize=auto;orthogonalLoop=1;fontSize=11;endArrow=block;endFill=0;endSize=8;strokeWidth=1;shadow=0;labelBackgroundColor=none;edgeStyle=orthogonalEdgeStyle;" edge="1" parent="1" source="BN19ADX8kNCoSahIcwr2-2" target="BN19ADX8kNCoSahIcwr2-5">
          <mxGeometry relative="1" as="geometry" />
        </mxCell>
        <mxCell id="BN19ADX8kNCoSahIcwr2-2" value="Đăng nhập tài khoản" style="rounded=1;whiteSpace=wrap;html=1;fontSize=12;glass=0;strokeWidth=1;shadow=0;" vertex="1" parent="1">
          <mxGeometry x="160" y="80" width="120" height="40" as="geometry" />
        </mxCell>
        <mxCell id="BN19ADX8kNCoSahIcwr2-3" style="edgeStyle=orthogonalEdgeStyle;rounded=0;orthogonalLoop=1;jettySize=auto;html=1;entryX=1;entryY=0.5;entryDx=0;entryDy=0;exitX=1;exitY=0.5;exitDx=0;exitDy=0;" edge="1" parent="1" source="BN19ADX8kNCoSahIcwr2-5" target="BN19ADX8kNCoSahIcwr2-6">
          <mxGeometry relative="1" as="geometry">
            <Array as="points">
              <mxPoint x="390" y="217" />
              <mxPoint x="390" y="650" />
            </Array>
          </mxGeometry>
        </mxCell>
        <mxCell id="BN19ADX8kNCoSahIcwr2-4" style="edgeStyle=orthogonalEdgeStyle;rounded=0;orthogonalLoop=1;jettySize=auto;html=1;entryX=0.5;entryY=0;entryDx=0;entryDy=0;exitX=0;exitY=0.5;exitDx=0;exitDy=0;" edge="1" parent="1" source="BN19ADX8kNCoSahIcwr2-5" target="BN19ADX8kNCoSahIcwr2-9">
          <mxGeometry relative="1" as="geometry" />
        </mxCell>
        <mxCell id="BN19ADX8kNCoSahIcwr2-5" value="Đăng nhập bằng Google" style="rhombus;whiteSpace=wrap;html=1;shadow=0;fontFamily=Helvetica;fontSize=12;align=center;strokeWidth=1;spacing=6;spacingTop=-4;" vertex="1" parent="1">
          <mxGeometry x="158" y="167" width="125" height="100" as="geometry" />
        </mxCell>
        <mxCell id="BN19ADX8kNCoSahIcwr2-6" value="Hoàn tất đăng nhập" style="rounded=1;whiteSpace=wrap;html=1;fontSize=12;glass=0;strokeWidth=1;shadow=0;" vertex="1" parent="1">
          <mxGeometry x="150" y="630" width="120" height="40" as="geometry" />
        </mxCell>
        <mxCell id="BN19ADX8kNCoSahIcwr2-7" value="Có" style="text;html=1;align=center;verticalAlign=middle;resizable=0;points=[];autosize=1;strokeColor=none;fillColor=none;" vertex="1" parent="1">
          <mxGeometry x="283" y="188" width="40" height="30" as="geometry" />
        </mxCell>
        <mxCell id="BN19ADX8kNCoSahIcwr2-8" style="edgeStyle=orthogonalEdgeStyle;rounded=0;orthogonalLoop=1;jettySize=auto;html=1;entryX=0.5;entryY=0;entryDx=0;entryDy=0;" edge="1" parent="1" source="BN19ADX8kNCoSahIcwr2-9" target="BN19ADX8kNCoSahIcwr2-12">
          <mxGeometry relative="1" as="geometry" />
        </mxCell>
        <mxCell id="BN19ADX8kNCoSahIcwr2-9" value="Nhập thông tin" style="shape=parallelogram;perimeter=parallelogramPerimeter;whiteSpace=wrap;html=1;fixedSize=1;" vertex="1" parent="1">
          <mxGeometry y="240" width="120" height="60" as="geometry" />
        </mxCell>
        <mxCell id="BN19ADX8kNCoSahIcwr2-11" style="edgeStyle=orthogonalEdgeStyle;rounded=0;orthogonalLoop=1;jettySize=auto;html=1;entryX=0;entryY=0.5;entryDx=0;entryDy=0;exitX=0;exitY=0.5;exitDx=0;exitDy=0;" edge="1" parent="1" source="BN19ADX8kNCoSahIcwr2-12" target="BN19ADX8kNCoSahIcwr2-9">
          <mxGeometry relative="1" as="geometry">
            <mxPoint x="-69.99999999999977" y="330" as="targetPoint" />
            <Array as="points">
              <mxPoint x="-30" y="380" />
              <mxPoint x="-30" y="270" />
            </Array>
          </mxGeometry>
        </mxCell>
        <mxCell id="BN19ADX8kNCoSahIcwr2-22" style="edgeStyle=orthogonalEdgeStyle;rounded=0;orthogonalLoop=1;jettySize=auto;html=1;entryX=0.5;entryY=0;entryDx=0;entryDy=0;" edge="1" parent="1" source="BN19ADX8kNCoSahIcwr2-12" target="BN19ADX8kNCoSahIcwr2-23">
          <mxGeometry relative="1" as="geometry">
            <mxPoint x="60" y="460" as="targetPoint" />
          </mxGeometry>
        </mxCell>
        <mxCell id="BN19ADX8kNCoSahIcwr2-12" value="Đã đủ thông tin" style="rhombus;whiteSpace=wrap;html=1;" vertex="1" parent="1">
          <mxGeometry x="10" y="330" width="100" height="100" as="geometry" />
        </mxCell>
        <mxCell id="BN19ADX8kNCoSahIcwr2-16" value="Chưa" style="text;html=1;align=center;verticalAlign=middle;resizable=0;points=[];autosize=1;strokeColor=none;fillColor=none;" vertex="1" parent="1">
          <mxGeometry x="-31" y="350" width="50" height="30" as="geometry" />
        </mxCell>
        <mxCell id="BN19ADX8kNCoSahIcwr2-17" value="Không" style="text;html=1;align=center;verticalAlign=middle;resizable=0;points=[];autosize=1;strokeColor=none;fillColor=none;" vertex="1" parent="1">
          <mxGeometry x="98" y="188" width="60" height="30" as="geometry" />
        </mxCell>
        <mxCell id="BN19ADX8kNCoSahIcwr2-24" style="edgeStyle=orthogonalEdgeStyle;rounded=0;orthogonalLoop=1;jettySize=auto;html=1;entryX=0;entryY=0.5;entryDx=0;entryDy=0;" edge="1" parent="1" source="BN19ADX8kNCoSahIcwr2-23" target="BN19ADX8kNCoSahIcwr2-6">
          <mxGeometry relative="1" as="geometry">
            <Array as="points">
              <mxPoint x="60" y="650" />
            </Array>
          </mxGeometry>
        </mxCell>
        <mxCell id="BN19ADX8kNCoSahIcwr2-25" style="edgeStyle=orthogonalEdgeStyle;rounded=0;orthogonalLoop=1;jettySize=auto;html=1;entryX=0;entryY=0;entryDx=0;entryDy=0;" edge="1" parent="1" source="BN19ADX8kNCoSahIcwr2-23" target="BN19ADX8kNCoSahIcwr2-9">
          <mxGeometry relative="1" as="geometry">
            <Array as="points">
              <mxPoint x="-60" y="508" />
              <mxPoint x="-60" y="249" />
            </Array>
          </mxGeometry>
        </mxCell>
        <mxCell id="BN19ADX8kNCoSahIcwr2-23" value="Kiểm tra thông tin" style="rhombus;whiteSpace=wrap;html=1;" vertex="1" parent="1">
          <mxGeometry x="20" y="468" width="80" height="80" as="geometry" />
        </mxCell>
        <mxCell id="BN19ADX8kNCoSahIcwr2-26" value="Đúng" style="text;html=1;align=center;verticalAlign=middle;resizable=0;points=[];autosize=1;strokeColor=none;fillColor=none;" vertex="1" parent="1">
          <mxGeometry x="60" y="548" width="50" height="30" as="geometry" />
        </mxCell>
        <mxCell id="BN19ADX8kNCoSahIcwr2-27" value="Sai" style="text;html=1;align=center;verticalAlign=middle;resizable=0;points=[];autosize=1;strokeColor=none;fillColor=none;" vertex="1" parent="1">
          <mxGeometry x="-19" y="478" width="40" height="30" as="geometry" />
        </mxCell>
      </root>
    </mxGraphModel>
  </diagram>
</mxfile>
